<?xml version="1.0" encoding="UTF-8" standalone="no"?>
<!-- Created with Inkscape (http://www.inkscape.org/) -->

<svg
   width="148.64938mm"
   height="36.466892mm"
   viewBox="0 0 148.64938 36.466892"
   version="1.1"
   id="svg5"
   inkscape:version="1.2.2 (b0a8486541, 2022-12-01)"
   sodipodi:docname="envarna-logo.svg"
   xmlns:inkscape="http://www.inkscape.org/namespaces/inkscape"
   xmlns:sodipodi="http://sodipodi.sourceforge.net/DTD/sodipodi-0.dtd"
   xmlns="http://www.w3.org/2000/svg"
   xmlns:svg="http://www.w3.org/2000/svg">
  <sodipodi:namedview
     id="namedview7"
     pagecolor="#505050"
     bordercolor="#ffffff"
     borderopacity="1"
     inkscape:showpageshadow="0"
     inkscape:pageopacity="0"
     inkscape:pagecheckerboard="1"
     inkscape:deskcolor="#d1d1d1"
     inkscape:document-units="mm"
     showgrid="false"
     inkscape:zoom="1.0825568"
     inkscape:cx="196.75642"
     inkscape:cy="56.348083"
     inkscape:window-width="2560"
     inkscape:window-height="1332"
     inkscape:window-x="3840"
     inkscape:window-y="0"
     inkscape:window-maximized="1"
     inkscape:current-layer="layer1" />
  <defs
     id="defs2">
    <rect
       x="188.88309"
       y="96.511459"
       width="461.89554"
       height="149.41959"
       id="rect4276" />
  </defs>
  <g
     inkscape:label="Layer 1"
     inkscape:groupmode="layer"
     id="layer1"
     transform="translate(-9.9587008,-19.330944)">
    <g
       id="g4220"
       transform="matrix(0.40340678,0,0,0.40340678,-15.657731,-3.4669709)">
      <circle
         style="fill:#594157;fill-opacity:1;stroke:#594157;stroke-width:0.1;stroke-opacity:1"
         id="path234"
         cx="108.69891"
         cy="101.71213"
         r="45.148663" />
      <circle
         style="fill:#ffffff;stroke:#ffffff;stroke-width:0.113718;stroke-opacity:1"
         id="path340"
         cx="108.69891"
         cy="101.71213"
         r="38.875877" />
    </g>
    <g
       id="g460">
      <g
         id="g4197"
         transform="matrix(0.40340678,0,0,0.40340678,-16.060532,-3.5522107)">
        <rect
           style="fill:#726da8;fill-opacity:1;stroke:#726da8;stroke-width:0.0923095;stroke-linecap:round;stroke-linejoin:round;stroke-opacity:1"
           id="rect3266"
           width="11.86283"
           height="57.358894"
           x="84.850227"
           y="73.24398"
           ry="6.9627643" />
        <circle
           style="fill:#726da8;fill-opacity:1;stroke:#ffffff;stroke-width:3.37;stroke-linecap:round;stroke-linejoin:round;stroke-dasharray:none;stroke-opacity:1"
           id="path3360"
           cx="90.781639"
           cy="101.92343"
           r="7.7923751" />
      </g>
      <g
         id="g445">
        <rect
           style="fill:#7d8cc4;fill-opacity:1;stroke:#7d8cc4;stroke-width:0.0372383;stroke-linecap:round;stroke-linejoin:round;stroke-opacity:1"
           id="rect3266-3"
           width="4.7855463"
           height="23.138968"
           x="25.799379"
           y="25.994907"
           ry="2.8088262" />
        <circle
           style="fill:#7d8cc4;fill-opacity:1;stroke:#ffffff;stroke-width:1.35948;stroke-linecap:round;stroke-linejoin:round;stroke-dasharray:none;stroke-opacity:1"
           id="path3360-7"
           cx="28.192148"
           cy="32.795055"
           r="3.143497" />
      </g>
      <g
         id="g449">
        <rect
           style="fill:#a0d2db;fill-opacity:1;stroke:#7d8cc4;stroke-width:0.0372383;stroke-linecap:round;stroke-linejoin:round;stroke-opacity:1"
           id="rect3266-6"
           width="4.7855463"
           height="23.138968"
           x="33.43013"
           y="25.994907"
           ry="2.8088262" />
        <circle
           style="fill:#a0d2db;fill-opacity:1;stroke:#ffffff;stroke-width:1.35948;stroke-linecap:round;stroke-linejoin:round;stroke-dasharray:none;stroke-opacity:1"
           id="path3360-5"
           cx="35.822899"
           cy="42.384953"
           r="3.143497" />
      </g>
    </g>
    <g
       aria-label="envarna"
       transform="matrix(0.29805939,0,0,0.29805939,-3.7611566,-9.3495229)"
       id="text4274"
       style="font-size:96px;font-family:'Cal Sans';-inkscape-font-specification:'Cal Sans, Normal';white-space:pre;shape-inside:url(#rect4276);fill:#769d8f;stroke:#ffffff;stroke-width:0;stroke-linecap:round;stroke-linejoin:round">
      <path
         d="m 216.62681,183.60587 q -7.68,0 -13.536,-3.552 -5.856,-3.552 -9.12,-9.408 -3.168,-5.952 -3.168,-13.152 0,-7.2 3.36,-13.152 3.36,-6.048 9.12,-9.6 5.856,-3.552 13.344,-3.552 7.488,0 13.152,3.552 5.76,3.552 8.928,9.6 3.264,5.952 3.264,13.152 0,1.056 -0.096,2.208 -0.096,1.152 -0.288,2.4 h -37.344 q 1.056,4.416 4.224,7.2 3.264,2.784 8.16,2.784 4.224,0 7.296,-1.92 3.168,-1.92 4.896,-4.8 l 10.08,7.584 q -2.976,4.704 -8.928,7.68 -5.952,2.976 -13.344,2.976 z m -0.192,-41.28 q -4.608,0 -7.872,2.784 -3.264,2.784 -4.32,7.296 h 24.672 q -1.056,-4.128 -4.416,-7.104 -3.264,-2.976 -8.064,-2.976 z"
         style="stroke:#415957"
         id="path389" />
      <path
         d="m 247.63486,182.35787 v -49.92 h 12.768 v 7.296 q 3.936,-8.448 15.264,-8.448 5.376,0 9.696,2.496 4.32,2.496 6.816,7.104 2.496,4.608 2.496,10.944 v 30.528 h -12.96 v -27.36 q 0,-6.528 -2.976,-9.408 -2.976,-2.976 -7.776,-2.976 -4.128,0 -7.296,2.976 -3.072,2.88 -3.072,9.408 v 27.36 z"
         style="stroke:#415957"
         id="path391" />
      <path
         d="m 314.54685,182.35787 -20.832,-49.92 h 15.36 l 9.984,28.512 q 1.344,3.84 2.112,7.968 0.768,-4.128 2.112,-7.968 l 9.984,-28.512 h 15.072 l -20.736,49.92 z"
         style="stroke:#415957"
         id="path393" />
      <path
         d="m 370.32271,183.60587 q -6.816,0 -12.48,-3.456 -5.568,-3.552 -8.928,-9.408 -3.264,-5.952 -3.264,-13.152 0,-5.376 1.92,-10.08 1.92,-4.8 5.28,-8.352 3.36,-3.648 7.776,-5.664 4.512,-2.112 9.696,-2.112 6.528,0 10.176,2.496 3.648,2.4 5.664,6.432 v -7.872 h 12.864 v 49.92 h -12.576 v -8.16 q -2.016,4.224 -5.76,6.816 -3.648,2.592 -10.368,2.592 z m 2.112,-11.712 q 4.32,0 7.392,-1.92 3.168,-2.016 4.896,-5.28 1.728,-3.264 1.728,-7.104 0,-3.936 -1.728,-7.2 -1.728,-3.264 -4.896,-5.28 -3.072,-2.016 -7.392,-2.016 -4.128,0 -7.296,2.016 -3.072,1.92 -4.8,5.184 -1.728,3.264 -1.728,7.2 0,3.744 1.728,7.104 1.728,3.264 4.8,5.28 3.168,2.016 7.296,2.016 z"
         style="stroke:#415957"
         id="path395" />
      <path
         d="m 406.70664,182.35787 v -49.92 h 12.576 v 9.504 q 1.248,-5.376 5.088,-8.16 3.84,-2.88 10.368,-2.496 v 12.192 h -1.824 q -5.568,0 -9.408,3.552 -3.84,3.552 -3.84,9.792 v 25.536 z"
         style="stroke:#415957"
         id="path397" />
      <path
         d="m 439.05863,182.35787 v -49.92 h 12.768 v 7.296 q 3.936,-8.448 15.264,-8.448 5.376,0 9.696,2.496 4.32,2.496 6.816,7.104 2.496,4.608 2.496,10.944 v 30.528 h -12.96 v -27.36 q 0,-6.528 -2.976,-9.408 -2.976,-2.976 -7.776,-2.976 -4.128,0 -7.296,2.976 -3.072,2.88 -3.072,9.408 v 27.36 z"
         style="stroke:#415957"
         id="path399" />
      <path
         d="m 516.05068,183.60587 q -6.816,0 -12.48,-3.456 -5.568,-3.552 -8.928,-9.408 -3.264,-5.952 -3.264,-13.152 0,-5.376 1.92,-10.08 1.92,-4.8 5.28,-8.352 3.36,-3.648 7.776,-5.664 4.512,-2.112 9.696,-2.112 6.528,0 10.176,2.496 3.648,2.4 5.664,6.432 v -7.872 h 12.864 v 49.92 h -12.576 v -8.16 q -2.016,4.224 -5.76,6.816 -3.648,2.592 -10.368,2.592 z m 2.112,-11.712 q 4.32,0 7.392,-1.92 3.168,-2.016 4.896,-5.28 1.728,-3.264 1.728,-7.104 0,-3.936 -1.728,-7.2 -1.728,-3.264 -4.896,-5.28 -3.072,-2.016 -7.392,-2.016 -4.128,0 -7.296,2.016 -3.072,1.92 -4.8,5.184 -1.728,3.264 -1.728,7.2 0,3.744 1.728,7.104 1.728,3.264 4.8,5.28 3.168,2.016 7.296,2.016 z"
         style="stroke:#415957"
         id="path401" />
    </g>
  </g>
</svg>
